<?xml version="1.0" encoding="utf-8"?>
<!-- Svg Vector Icons : http://www.onlinewebfonts.com/icon -->
<!DOCTYPE svg PUBLIC "-//W3C//DTD SVG 1.1//EN" "http://www.w3.org/Graphics/SVG/1.1/DTD/svg11.dtd">
<svg version="1.1" xmlns="http://www.w3.org/2000/svg" xmlns:xlink="http://www.w3.org/1999/xlink" x="0px" y="0px" viewBox="0 0 1000 1000" enable-background="new 0 0 1000 1000" xml:space="preserve">
<metadata> Svg Vector Icons : http://www.onlinewebfonts.com/icon </metadata>
<g><path fill="white"  d="M690.8,286.6c23.3,0,43.5-18.9,43.5-42.3V52.3c0-23.3-20.2-42.3-43.5-42.3c-23.3,0-42.2,18.9-42.2,42.3v192.1C648.6,267.7,667.5,286.6,690.8,286.6z M606.5,116.4H392.8v63.8h213.8V116.4z M856.6,116.4h-79.4v63.5h82.5c24.3,0,44.7,20.5,44.7,44.8v147.7H94.9V224.7c0-24.3,20.5-44.8,44.7-44.8h83v-63.5h-79.3c-61.5,0-111.8,50.4-111.8,112V878c0,61.6,48.5,112,110,112h715.1c61.5,0,111.8-50.4,111.8-112V228.5C968.4,166.8,918.1,116.4,856.6,116.4z M904.4,881.3c0,24.3-20.5,44.8-44.7,44.8h-720c-24.3,0-44.7-20.5-44.7-44.8V436.1h809.4V881.3z M264.5,627.8c35.4,0,64.1-28.7,64.1-64.2c0-35.4-28.7-64.2-64.1-64.2c-35.4,0-64.1,28.7-64.1,64.2C200.4,599,229.1,627.8,264.5,627.8z M499.1,627.8c35.4,0,64.1-28.7,64.1-64.2c0-35.4-28.7-64.2-64.1-64.2c-35.4,0-64.1,28.7-64.1,64.2C435,599,463.7,627.8,499.1,627.8z M263.4,862.5c35.4,0,64.1-28.7,64.1-64.2c0-35.5-28.7-64.2-64.1-64.2c-35.4,0-64.1,28.7-64.1,64.2C199.3,833.7,228,862.5,263.4,862.5z M499.1,862.5c35.4,0,64.1-28.7,64.1-64.2c0-35.5-28.7-64.2-64.1-64.2c-35.4,0-64.1,28.7-64.1,64.2C435,833.7,463.7,862.5,499.1,862.5z M733.4,627.8c35.4,0,64.1-28.7,64.1-64.2c0-35.4-28.7-64.2-64.1-64.2c-35.4,0-64.1,28.7-64.1,64.2C669.3,599,698,627.8,733.4,627.8z M307.3,286.6c23.3,0,43.6-18.9,43.6-42.3V52.3c0-23.3-20.2-42.3-43.6-42.3c-23.3,0-42.2,18.9-42.2,42.3v192.1C265.1,267.7,284,286.6,307.3,286.6z"/></g>
</svg>
